<?xml version="1.0" encoding="UTF-8" standalone="no"?>
<svg
   xmlns:dc="http://purl.org/dc/elements/1.1/"
   xmlns:cc="http://creativecommons.org/ns#"
   xmlns:rdf="http://www.w3.org/1999/02/22-rdf-syntax-ns#"
   xmlns:svg="http://www.w3.org/2000/svg"
   xmlns="http://www.w3.org/2000/svg"
   xmlns:sodipodi="http://sodipodi.sourceforge.net/DTD/sodipodi-0.dtd"
   xmlns:inkscape="http://www.inkscape.org/namespaces/inkscape"
   width="48"
   height="48"
   viewBox="0 0 48 48"
   id="svg14"
   version="1.1"
   inkscape:version="0.91 r13725"
   sodipodi:docname="applications-electronics.svg">
  <metadata
     id="metadata24">
    <rdf:RDF>
      <cc:Work
         rdf:about="">
        <dc:format>image/svg+xml</dc:format>
        <dc:type
           rdf:resource="http://purl.org/dc/dcmitype/StillImage" />
        <dc:title></dc:title>
      </cc:Work>
    </rdf:RDF>
  </metadata>
  <defs
     id="defs22" />
  <sodipodi:namedview
     pagecolor="#ffffff"
     bordercolor="#666666"
     borderopacity="1"
     objecttolerance="10"
     gridtolerance="10"
     guidetolerance="10"
     inkscape:pageopacity="0"
     inkscape:pageshadow="2"
     inkscape:window-width="1366"
     inkscape:window-height="718"
     id="namedview20"
     showgrid="true"
     inkscape:zoom="6.9532167"
     inkscape:cx="20.058112"
     inkscape:cy="21.806978"
     inkscape:window-x="0"
     inkscape:window-y="30"
     inkscape:window-maximized="0"
     inkscape:current-layer="svg14"
     inkscape:snap-bbox="true"
     inkscape:bbox-nodes="true"
     inkscape:bbox-paths="true"
     inkscape:object-nodes="true">
    <inkscape:grid
       type="xygrid"
       id="grid4134"
       empspacing="1"
       spacingy="2"
       spacingx="2"
       empcolor="#3f3fff"
       empopacity="0.07058824" />
  </sodipodi:namedview>
  <path
     d="M0 0h48v48H0z"
     fill="none"
     id="path16" />
  <g
     id="g4216" />
  <g
     id="g4206" />
  <g
     id="g4211" />
  <g
     id="g4201">
    <path
       id="rect4196"
       style="opacity:1;fill:#afc8e1;fill-opacity:1;stroke:#ffffff;stroke-width:0;stroke-linecap:square;stroke-linejoin:miter;stroke-miterlimit:4;stroke-dasharray:none;stroke-dashoffset:0;stroke-opacity:1"
       d="m 30,40 4,0 0,4 -4,0 z m -7.999994,4e-6 4,0 0,4 -4,0 z M 14,40 l 4,0 0,4 -4,0 z m 16,-36 4,0 0,4 -4,0 z m -7.999994,4.8e-6 4,0 0,4 -4,0 z M 14,4 l 4,0 0,4 -4,0 z m -10,26 4,0 0,4 -4,0 z m 0,-8 4,0 0,4 -4,0 z m -5e-6,-7.999995 4,0 0,4 -4,0 z m 36.000009,15.999989 4,0 0,4 -4,0 z M 40,22 l 4,0 0,4 -4,0 z m 0,-8 4,0 0,4 -4,0 z M 12,8 C 9.7840026,8 8,9.7840026 8,12 l 0,24 c 0,2.215997 1.7840026,4 4,4 l 24,0 c 2.215997,0 4,-1.784003 4,-4 L 40,12 C 40,9.7840026 38.215997,8 36,8 L 12,8 Z m 4,4 a 3.9999974,3.9999974 0 0 1 4,4 3.9999974,3.9999974 0 0 1 -4,4 3.9999974,3.9999974 0 0 1 -4,-4 3.9999974,3.9999974 0 0 1 4,-4 z" />
  </g>
</svg>
