<?xml version="1.0" encoding="UTF-8" standalone="no"?>
<svg
   xmlns:dc="http://purl.org/dc/elements/1.1/"
   xmlns:cc="http://creativecommons.org/ns#"
   xmlns:rdf="http://www.w3.org/1999/02/22-rdf-syntax-ns#"
   xmlns:svg="http://www.w3.org/2000/svg"
   xmlns="http://www.w3.org/2000/svg"
   xmlns:sodipodi="http://sodipodi.sourceforge.net/DTD/sodipodi-0.dtd"
   xmlns:inkscape="http://www.inkscape.org/namespaces/inkscape"
   width="48"
   height="48"
   viewBox="0 0 48 48"
   id="svg14"
   version="1.1"
   inkscape:version="0.91 r13725"
   sodipodi:docname="edit-cut.svg">
  <metadata
     id="metadata30">
    <rdf:RDF>
      <cc:Work
         rdf:about="">
        <dc:format>image/svg+xml</dc:format>
        <dc:type
           rdf:resource="http://purl.org/dc/dcmitype/StillImage" />
      </cc:Work>
    </rdf:RDF>
  </metadata>
  <defs
     id="defs28" />
  <sodipodi:namedview
     pagecolor="#ffffff"
     bordercolor="#666666"
     borderopacity="1"
     objecttolerance="10"
     gridtolerance="10"
     guidetolerance="10"
     inkscape:pageopacity="0"
     inkscape:pageshadow="2"
     inkscape:window-width="1366"
     inkscape:window-height="718"
     id="namedview26"
     showgrid="false"
     inkscape:zoom="4.9166667"
     inkscape:cx="-21.050847"
     inkscape:cy="24"
     inkscape:window-x="0"
     inkscape:window-y="30"
     inkscape:window-maximized="0"
     inkscape:current-layer="svg14" />
  <path
     d="M0 0h48v48H0z"
     fill="none"
     id="path16" />
  <circle
     cx="12"
     cy="36"
     r="4"
     fill="none"
     id="circle18" />
  <circle
     cx="24"
     cy="24"
     r="1"
     fill="none"
     id="circle20" />
  <circle
     cx="12"
     cy="12"
     r="4"
     fill="none"
     id="circle22" />
  <path
     d="M19.28 15.28c.45-1 .72-2.11.72-3.28 0-4.42-3.58-8-8-8s-8 3.58-8 8 3.58 8 8 8c1.17 0 2.28-.27 3.28-.72L20 24l-4.72 4.72c-1-.45-2.11-.72-3.28-.72-4.42 0-8 3.58-8 8s3.58 8 8 8 8-3.58 8-8c0-1.17-.27-2.28-.72-3.28L24 28l14 14h6v-2L19.28 15.28zM12 16c-2.21 0-4-1.79-4-4s1.79-4 4-4 4 1.79 4 4-1.79 4-4 4zm0 24c-2.21 0-4-1.79-4-4s1.79-4 4-4 4 1.79 4 4-1.79 4-4 4zm12-15c-.55 0-1-.45-1-1s.45-1 1-1 1 .45 1 1-.45 1-1 1zM38 6L26 18l4 4L44 8V6z"
     id="path24"
     style="fill:#afc8e1;fill-opacity:1" />
</svg>
