<?xml version="1.0" encoding="UTF-8" standalone="no"?>
<svg
   xmlns:dc="http://purl.org/dc/elements/1.1/"
   xmlns:cc="http://creativecommons.org/ns#"
   xmlns:rdf="http://www.w3.org/1999/02/22-rdf-syntax-ns#"
   xmlns:svg="http://www.w3.org/2000/svg"
   xmlns="http://www.w3.org/2000/svg"
   xmlns:sodipodi="http://sodipodi.sourceforge.net/DTD/sodipodi-0.dtd"
   xmlns:inkscape="http://www.inkscape.org/namespaces/inkscape"
   width="24"
   height="24"
   viewBox="0 0 24 24"
   id="svg32"
   version="1.1"
   inkscape:version="0.91 r13725"
   sodipodi:docname="edit-find.svg">
  <metadata
     id="metadata42">
    <rdf:RDF>
      <cc:Work
         rdf:about="">
        <dc:format>image/svg+xml</dc:format>
        <dc:type
           rdf:resource="http://purl.org/dc/dcmitype/StillImage" />
      </cc:Work>
    </rdf:RDF>
  </metadata>
  <defs
     id="defs40" />
  <sodipodi:namedview
     pagecolor="#ffffff"
     bordercolor="#666666"
     borderopacity="1"
     objecttolerance="10"
     gridtolerance="10"
     guidetolerance="10"
     inkscape:pageopacity="0"
     inkscape:pageshadow="2"
     inkscape:window-width="1366"
     inkscape:window-height="718"
     id="namedview38"
     showgrid="false"
     inkscape:zoom="9.8333333"
     inkscape:cx="-10.525424"
     inkscape:cy="12"
     inkscape:window-x="0"
     inkscape:window-y="30"
     inkscape:window-maximized="0"
     inkscape:current-layer="svg32" />
  <path
     d="M0 0h24v24H0z"
     fill="none"
     id="path34" />
  <path
     d="M20 19.59V8l-6-6H6c-1.1 0-1.99.9-1.99 2L4 20c0 1.1.89 2 1.99 2H18c.45 0 .85-.15 1.19-.4l-4.43-4.43c-.8.52-1.74.83-2.76.83-2.76 0-5-2.24-5-5s2.24-5 5-5 5 2.24 5 5c0 1.02-.31 1.96-.83 2.75L20 19.59zM9 13c0 1.66 1.34 3 3 3s3-1.34 3-3-1.34-3-3-3-3 1.34-3 3z"
     id="path36"
     style="fill:#afc8e1;fill-opacity:1" />
</svg>
