<?xml version="1.0" encoding="UTF-8" standalone="no"?>
<svg
   xmlns:dc="http://purl.org/dc/elements/1.1/"
   xmlns:cc="http://creativecommons.org/ns#"
   xmlns:rdf="http://www.w3.org/1999/02/22-rdf-syntax-ns#"
   xmlns:svg="http://www.w3.org/2000/svg"
   xmlns="http://www.w3.org/2000/svg"
   xmlns:sodipodi="http://sodipodi.sourceforge.net/DTD/sodipodi-0.dtd"
   xmlns:inkscape="http://www.inkscape.org/namespaces/inkscape"
   width="48"
   height="48"
   viewBox="0 0 48 48"
   id="svg62"
   version="1.1"
   inkscape:version="0.91 r13725"
   sodipodi:docname="edit-clear.svg">
  <metadata
     id="metadata72">
    <rdf:RDF>
      <cc:Work
         rdf:about="">
        <dc:format>image/svg+xml</dc:format>
        <dc:type
           rdf:resource="http://purl.org/dc/dcmitype/StillImage" />
        <dc:title></dc:title>
      </cc:Work>
    </rdf:RDF>
  </metadata>
  <defs
     id="defs70" />
  <sodipodi:namedview
     pagecolor="#ffffff"
     bordercolor="#666666"
     borderopacity="1"
     objecttolerance="10"
     gridtolerance="10"
     guidetolerance="10"
     inkscape:pageopacity="0"
     inkscape:pageshadow="2"
     inkscape:window-width="1366"
     inkscape:window-height="718"
     id="namedview68"
     showgrid="true"
     inkscape:zoom="9.8333333"
     inkscape:cx="23.389185"
     inkscape:cy="23.075765"
     inkscape:window-x="0"
     inkscape:window-y="30"
     inkscape:window-maximized="0"
     inkscape:current-layer="svg62">
    <inkscape:grid
       type="xygrid"
       id="grid4134"
       spacingx="2"
       spacingy="2"
       empspacing="1"
       empcolor="#3f3fff"
       empopacity="0.11372549" />
  </sodipodi:namedview>
  <path
     d="M0 0h48v48H0z"
     fill="none"
     id="path64" />
  <path
     d="M44 6H14c-1.38 0-2.47.7-3.19 1.76L0 23.99l10.81 16.23C11.53 41.28 12.62 42 14 42h30c2.21 0 4-1.79 4-4V10c0-2.21-1.79-4-4-4zm-6 25.17L35.17 34 28 26.83 20.83 34 18 31.17 25.17 24 18 16.83 20.83 14 28 21.17 35.17 14 38 16.83 30.83 24 38 31.17z"
     id="path66"
     style="fill:#1a1a1a;fill-opacity:1" />
</svg>
